<?xml version="1.0" encoding="UTF-8"?>
<svg xmlns="http://www.w3.org/2000/svg" xmlns:xlink="http://www.w3.org/1999/xlink" width="1144" height="784" viewBox="-52 -732 1144 784">
<defs>
<style type="text/css">
.l235d4 {stroke: #0067A5; fill: #0067A5; fill-opacity: 0.5;}
.l71d20 {stroke: #B3446C; fill: #B3446C; fill-opacity: 0.5;}
</style>
</defs>
<rect x="-52" y="-732" width="1144" height="784" fill="#222222" stroke="none"/>
<g id="my_logo" transform="scale(1 -1)">
<polygon id="0x3259a020" class="l71d20" points="0,680 0,489.6 27.2,489.6 27.2,652.8 258.4,652.8 258.4,625.6 285.6,625.6 285.6,652.8 714,652.8 714,646 700.4,646 700.4,591.6 680,591.6 680,578 666.4,578 666.4,557.6 646,557.6 646,544 632.4,544 632.4,523.6 612,523.6 612,510 598.4,510 598.4,489.6 578,489.6 578,476 564.4,476 564.4,455.6 353.6,455.6 353.6,476 340,476 340,489.6 319.6,489.6 319.6,612 306,612 306,625.6 285.6,625.6 258.4,625.6 258.4,612 272,612 272,598.4 292.4,598.4 292.4,476 306,476 306,462.4 326.4,462.4 326.4,455.6 306,455.6 306,442 292.4,442 292.4,421.6 183.6,421.6 183.6,442 170,442 170,455.6 115.6,455.6 115.6,476 102,476 102,489.6 27.2,489.6 0,489.6 0,238 27.2,238 27.2,462.4 88.4,462.4 88.4,442 102,442 102,428.4 156.4,428.4 156.4,408 170,408 170,394.4 224.4,394.4 224.4,251.6 34,251.6 34,238 27.2,238 0,238 0,27.2 27.2,27.2 27.2,190.4 34,190.4 34,204 47.6,204 47.6,224.4 224.4,224.4 224.4,217.6 251.6,217.6 251.6,394.4 306,394.4 306,408 319.6,408 319.6,428.4 530.4,428.4 530.4,319.6 557.6,319.6 557.6,428.4 578,428.4 578,442 591.6,442 591.6,462.4 612,462.4 612,476 625.6,476 625.6,496.4 646,496.4 646,510 659.6,510 659.6,530.4 680,530.4 680,544 693.6,544 693.6,564.4 714,564.4 714,578 727.6,578 727.6,632.4 748,632.4 748,646 761.6,646 761.6,652.8 870.4,652.8 870.4,557.6 850,557.6 850,544 836.4,544 836.4,251.6 816,251.6 816,238 802.4,238 802.4,217.6 782,217.6 782,204 768.4,204 768.4,183.6 761.6,183.6 761.6,204 748,204 748,217.6 693.6,217.6 693.6,238 680,238 680,251.6 659.6,251.6 659.6,272 646,272 646,285.6 591.6,285.6 591.6,306 578,306 578,319.6 557.6,319.6 530.4,319.6 510,319.6 510,306 496.4,306 496.4,251.6 408,251.6 408,238 394.4,238 394.4,217.6 251.6,217.6 224.4,217.6 224.4,204 238,204 238,190.4 258.4,190.4 258.4,27.2 285.6,27.2 285.6,190.4 408,190.4 408,204 421.6,204 421.6,224.4 496.4,224.4 496.4,81.6 523.6,81.6 523.6,292.4 564.4,292.4 564.4,272 578,272 578,258.4 632.4,258.4 632.4,238 646,238 646,224.4 666.4,224.4 666.4,204 680,204 680,190.4 734.4,190.4 734.4,149.6 714,149.6 714,136 700.4,136 700.4,81.6 680,81.6 680,68 666.4,68 666.4,27.2 693.6,27.2 693.6,54.4 714,54.4 714,68 727.6,68 727.6,122.4 748,122.4 748,136 761.6,136 761.6,156.4 782,156.4 782,170 795.6,170 795.6,190.4 816,190.4 816,204 829.6,204 829.6,224.4 836.4,224.4 836.4,217.6 863.6,217.6 863.6,530.4 884,530.4 884,544 897.6,544 897.6,652.8 1012.8,652.8 1012.8,115.6 999.6,115.6 999.6,136 986,136 986,149.6 965.6,149.6 965.6,170 952,170 952,183.6 897.6,183.6 897.6,204 884,204 884,217.6 863.6,217.6 836.4,217.6 836.4,204 850,204 850,190.4 870.4,190.4 870.4,170 884,170 884,156.4 938.4,156.4 938.4,136 952,136 952,122.4 972.4,122.4 972.4,102 986,102 986,88.4 1012.8,88.4 1012.8,27.2 693.6,27.2 666.4,27.2 557.6,27.2 557.6,68 544,68 544,81.6 523.6,81.6 496.4,81.6 496.4,68 510,68 510,54.4 530.4,54.4 530.4,27.2 285.6,27.2 258.4,27.2 27.2,27.2 0,27.2 0,0 1040,0 1040,680"/>
<polygon id="0x327473e0" class="l235d4" points="0,0 40,0 40,40 0,40"/>
</g>
</svg>