<?xml version="1.0" encoding="UTF-8"?>
<svg xmlns="http://www.w3.org/2000/svg" xmlns:xlink="http://www.w3.org/1999/xlink" width="1144" height="784" viewBox="-52 -732 1144 784">
<defs>
<style type="text/css">
.l235d4 {stroke: #0067A5; fill: #0067A5; fill-opacity: 0.5;}
.l71d20 {stroke: #B3446C; fill: #B3446C; fill-opacity: 0.5;}
</style>
</defs>
<rect x="-52" y="-732" width="1144" height="784" fill="#222222" stroke="none"/>
<g id="my_logo" transform="scale(1 -1)">
<polygon id="0x394e5b60" class="l71d20" points="0,680 0,418.2 20.4,418.2 20.4,659.6 329.8,659.6 329.8,656.2 350.2,656.2 350.2,659.6 669.8,659.6 669.8,656.2 690.2,656.2 690.2,659.6 1019.6,659.6 1019.6,588.2 952,588.2 952,578 941.8,578 941.8,554.2 884,554.2 884,544 873.8,544 873.8,520.2 816,520.2 816,510 805.8,510 805.8,486.2 724.2,486.2 724.2,646 714,646 714,656.2 690.2,656.2 669.8,656.2 669.8,646 680,646 680,635.8 703.8,635.8 703.8,452.2 690.2,452.2 690.2,476 680,476 680,486.2 622.2,486.2 622.2,510 612,510 612,520.2 554.2,520.2 554.2,544 544,544 544,554.2 520.2,554.2 520.2,578 510,578 510,588.2 452.2,588.2 452.2,612 442,612 442,622.2 384.2,622.2 384.2,646 374,646 374,656.2 350.2,656.2 329.8,656.2 329.8,646 340,646 340,635.8 363.8,635.8 363.8,554.2 384.2,554.2 384.2,601.8 431.8,601.8 431.8,578 442,578 442,567.8 499.8,567.8 499.8,544 510,544 510,533.8 533.8,533.8 533.8,510 544,510 544,499.8 601.8,499.8 601.8,476 612,476 612,465.8 669.8,465.8 669.8,442 680,442 680,431.8 703.8,431.8 703.8,384.2 680,384.2 680,374 669.8,374 669.8,350.2 690.2,350.2 690.2,363.8 714,363.8 714,374 724.2,374 724.2,465.8 816,465.8 816,476 826.2,476 826.2,499.8 884,499.8 884,510 894.2,510 894.2,533.8 952,533.8 952,544 962.2,544 962.2,567.8 1019.6,567.8 1019.6,20.4 962.2,20.4 962.2,68 952,68 952,78.2 928.2,78.2 928.2,102 918,102 918,112.2 894.2,112.2 894.2,136 884,136 884,146.2 860.2,146.2 860.2,170 850,170 850,180.2 826.2,180.2 826.2,204 816,204 816,214.2 792.2,214.2 792.2,272 782,272 782,282.2 758.2,282.2 758.2,306 748,306 748,316.2 724.2,316.2 724.2,340 714,340 714,350.2 690.2,350.2 669.8,350.2 554.2,350.2 554.2,374 544,374 544,384.2 452.2,384.2 452.2,408 442,408 442,418.2 418.2,418.2 418.2,544 408,544 408,554.2 384.2,554.2 363.8,554.2 363.8,544 374,544 374,533.8 397.8,533.8 397.8,384.2 374,384.2 374,374 363.8,374 363.8,316.2 282.2,316.2 282.2,340 272,340 272,350.2 146.2,350.2 146.2,374 136,374 136,384.2 44.2,384.2 44.2,408 34,408 34,418.2 20.4,418.2 0,418.2 0,316.2 20.4,316.2 20.4,397.8 23.8,397.8 23.8,374 34,374 34,363.8 125.8,363.8 125.8,340 136,340 136,329.8 261.8,329.8 261.8,306 272,306 272,295.8 329.8,295.8 329.8,282.2 350.2,282.2 350.2,295.8 374,295.8 374,306 384.2,306 384.2,363.8 408,363.8 408,374 418.2,374 418.2,397.8 431.8,397.8 431.8,374 442,374 442,363.8 533.8,363.8 533.8,340 544,340 544,329.8 601.8,329.8 601.8,316.2 578,316.2 578,306 567.8,306 567.8,282.2 544,282.2 544,272 533.8,272 533.8,248.2 510,248.2 510,238 499.8,238 499.8,214.2 476,214.2 476,204 465.8,204 465.8,180.2 384.2,180.2 384.2,272 374,272 374,282.2 350.2,282.2 329.8,282.2 329.8,272 340,272 340,261.8 363.8,261.8 363.8,180.2 340,180.2 340,170 329.8,170 329.8,146.2 214.2,146.2 214.2,170 204,170 204,180.2 180.2,180.2 180.2,204 170,204 170,214.2 146.2,214.2 146.2,238 136,238 136,248.2 112.2,248.2 112.2,272 102,272 102,282.2 44.2,282.2 44.2,306 34,306 34,316.2 20.4,316.2 0,316.2 0,20.4 20.4,20.4 20.4,295.8 23.8,295.8 23.8,272 34,272 34,261.8 91.8,261.8 91.8,238 102,238 102,227.8 125.8,227.8 125.8,204 136,204 136,193.8 159.8,193.8 159.8,170 170,170 170,159.8 193.8,159.8 193.8,136 204,136 204,125.8 261.8,125.8 261.8,44.2 238,44.2 238,34 227.8,34 227.8,20.4 248.2,20.4 248.2,23.8 272,23.8 272,34 282.2,34 282.2,125.8 340,125.8 340,136 350.2,136 350.2,159.8 465.8,159.8 465.8,112.2 486.2,112.2 486.2,193.8 510,193.8 510,204 520.2,204 520.2,227.8 544,227.8 544,238 554.2,238 554.2,261.8 578,261.8 578,272 588.2,272 588.2,295.8 612,295.8 612,306 622.2,306 622.2,329.8 703.8,329.8 703.8,306 714,306 714,295.8 737.8,295.8 737.8,272 748,272 748,261.8 771.8,261.8 771.8,204 782,204 782,193.8 805.8,193.8 805.8,170 816,170 816,159.8 839.8,159.8 839.8,136 850,136 850,125.8 873.8,125.8 873.8,102 884,102 884,91.8 907.8,91.8 907.8,68 918,68 918,57.8 941.8,57.8 941.8,20.4 554.2,20.4 554.2,34 544,34 544,44.2 520.2,44.2 520.2,102 510,102 510,112.2 486.2,112.2 465.8,112.2 465.8,102 476,102 476,91.8 499.8,91.8 499.8,34 510,34 510,23.8 533.8,23.8 533.8,20.4 248.2,20.4 227.8,20.4 20.4,20.4 0,20.4 0,0 1040,0 1040,680"/>
<polygon id="0x39495590" class="l235d4" points="0,0 40,0 40,40 0,40"/>
</g>
</svg>