<?xml version="1.0" encoding="UTF-8"?>
<svg xmlns="http://www.w3.org/2000/svg" xmlns:xlink="http://www.w3.org/1999/xlink" width="1144" height="784" viewBox="-52 -732 1144 784">
<defs>
<style type="text/css">
.l235d4 {stroke: #0067A5; fill: #0067A5; fill-opacity: 0.5;}
.l71d20 {stroke: #B3446C; fill: #B3446C; fill-opacity: 0.5;}
</style>
</defs>
<rect x="-52" y="-732" width="1144" height="784" fill="#222222" stroke="none"/>
<g id="my_logo" transform="scale(1 -1)">
<polygon id="0x263aa810" class="l71d20" points="272,387.6 272,374 258.4,374 258.4,353.6 204,353.6 204,340 190.4,340 190.4,319.6 136,319.6 136,306 122.4,306 122.4,285.6 68,285.6 68,272 54.4,272 54.4,251.6 0,251.6 0,224.4 68,224.4 68,238 81.6,238 81.6,258.4 136,258.4 136,272 149.6,272 149.6,292.4 204,292.4 204,306 217.6,306 217.6,326.4 272,326.4 272,340 285.6,340 285.6,360.4 292.4,360.4 292.4,340 306,340 306,326.4 326.4,326.4 326.4,306 340,306 340,292.4 394.4,292.4 394.4,272 408,272 408,258.4 428.4,258.4 428.4,183.6 408,183.6 408,170 394.4,170 394.4,0 421.6,0 421.6,156.4 442,156.4 442,170 455.6,170 455.6,224.4 476,224.4 476,238 489.6,238 489.6,258.4 632.4,258.4 632.4,204 646,204 646,190.4 666.4,190.4 666.4,34 680,34 680,20.4 700.4,20.4 700.4,0 727.6,0 727.6,34 714,34 714,47.6 693.6,47.6 693.6,204 680,204 680,217.6 659.6,217.6 659.6,292.4 680,292.4 680,306 693.6,306 693.6,326.4 714,326.4 714,340 727.6,340 727.6,360.4 836.4,360.4 836.4,340 850,340 850,326.4 1040,326.4 1040,353.6 863.6,353.6 863.6,374 850,374 850,387.6 727.6,387.6 727.6,476 714,476 714,489.6 693.6,489.6 693.6,544 680,544 680,557.6 659.6,557.6 659.6,646 646,646 646,659.6 625.6,659.6 625.6,680 598.4,680 598.4,646 612,646 612,632.4 632.4,632.4 632.4,544 646,544 646,530.4 666.4,530.4 666.4,476 680,476 680,462.4 700.4,462.4 700.4,353.6 680,353.6 680,340 666.4,340 666.4,319.6 646,319.6 646,306 632.4,306 632.4,285.6 476,285.6 476,272 462.4,272 462.4,251.6 455.6,251.6 455.6,272 442,272 442,285.6 421.6,285.6 421.6,306 408,306 408,319.6 353.6,319.6 353.6,340 340,340 340,353.6 319.6,353.6 319.6,680 292.4,680 292.4,387.6"/>
<polygon id="0x263a6af0" class="l235d4" points="0,0 40,0 40,40 0,40"/>
</g>
</svg>